<svg id="Layer_1" data-name="Layer 1" xmlns="http://www.w3.org/2000/svg" viewBox="0 0 650.41 348.93"><defs><style>.cls-1{fill:#ff8000;}</style></defs><path class="cls-1" d="M515.79,150a3,3,0,0,0-2.9-3.88l-25.85,0L455.35,253.55l-12-52.21L480.16,151a2.9,2.9,0,0,0,.54-1.1l.65-2.2a1.29,1.29,0,0,0-1.24-1.64H453.85l-28.19,41.29,12-37.41a3,3,0,0,0-2.9-3.88h-26l-22.49,76.41c.5-13.13-9.68-23.46-15.6-30-4.8-5.34-7.69-9.12-7.17-13.34a12,12,0,0,1,11.39-10.48c6.47-.51,9.25,1.48,13.37,3.41a3.68,3.68,0,0,0,1.52.36,3.32,3.32,0,0,0,1.24-.23,3.08,3.08,0,0,0,1.83-1.95l6.06-20.45-4.19-2-.61-.28-.2-.09h0a38.91,38.91,0,0,0-15.75-3.09c-22.78,0-43.5,16.31-46.92,36.36-2.39,14,6.6,23.94,13.17,31.17l.57.63c4.74,5.09,8,9,7.26,13.62-1.09,6.43-7.33,10.09-13.36,10.58-6.62.54-10.75-1.31-15.93-3.58a4.44,4.44,0,0,0-3-.56,3.18,3.18,0,0,0-2.12,2.08l-5.77,19.75h0l-.74,2.53a60.73,60.73,0,0,0,24.45,5.74c19.41,0,36.2-7.46,46.16-25.45l-5.88,20.05a3,3,0,0,0,2.9,3.88h26l6.49-22.07,7.91-11.4,6.1,31a3,3,0,0,0,3,2.44h54.64Z"/><path class="cls-1" d="M585.31,154.77a26.69,26.69,0,0,0-19.89-8.67h-43l-1.84,6.09a2,2,0,0,0,.24,1.68l1.22,1.92a7.66,7.66,0,0,1,.86,6.34l-27.95,95.14a3,3,0,0,0,2.85,3.92h25l7.82-26.45,11.3,0c27.26.35,41.08-18.8,47.24-39.6,2.52-8.51,3.72-14.62,3.68-18.7C592.75,167.38,590.52,160.52,585.31,154.77ZM564.58,179c-.28,5.39-2.33,12.3-4.73,17.65-3.21,7.16-6.2,12.5-14.66,13.46l-7.36,0,11.53-39.16,9.7.06a4.87,4.87,0,0,1,3.58,1.41C564.16,173.93,564.73,176.12,564.58,179Z"/><path class="cls-1" d="M282.45,170.65h0c-.71-1.85-10.54-20-28.78-42.77h0a3.69,3.69,0,0,1-.84-1.95h0a360.86,360.86,0,0,0-5.5-39.49,6.43,6.43,0,0,0-5.57-5h0l-18.95-2.29h0a4.36,4.36,0,0,0-.51,0,4,4,0,0,0-4,4v6.59a.24.24,0,0,1-.24.24.28.28,0,0,1-.16-.06h0A266.09,266.09,0,0,0,179.6,61h0a16.67,16.67,0,0,0-9.38-2.85h0A16.72,16.72,0,0,0,160.83,61h0C95.39,101.37,59.38,167,58,170.65h0a6.38,6.38,0,0,0-.62,2.76,6.49,6.49,0,0,0,4.89,6.29l18.85,3.63a6.44,6.44,0,0,1,4.71,5.5c.15,3.33,3.71,77.66,8.19,96.95h0a6.5,6.5,0,0,0,6.28,4.82h.14c11-.27,21.07-.46,31.95-.6h.9a2.11,2.11,0,0,0,2.1-2.11v-.06h0c-.44-6.49-1.39-21.33-2.16-36.95,0-.4-.05-.89-.07-1.28h0a4,4,0,0,0-1.91-3.21,20.37,20.37,0,0,1-9.9-16.42c-1-26.07-1.49-56.2-.06-79.77h0a3.79,3.79,0,0,1,7.58.16,2.71,2.71,0,0,1,0,.29h0c-.93,15.72-1,34.3-.67,52.63h0a4.49,4.49,0,0,0,9-.16h0c-.34-18.46-.25-37.15.71-52.92a3.79,3.79,0,0,1,7.58.16,2.71,2.71,0,0,1,0,.29c-.92,15.63-1,34.1-.68,52.34h0a4.49,4.49,0,0,0,9-.14h0c-.34-18.37-.24-37,.71-52.66a3.79,3.79,0,0,1,7.58.16,2.71,2.71,0,0,1,0,.29c-1.36,22.92-.91,51.93,0,77.37,0,0,0,.23,0,.24s0,.26,0,.39h0v.25a20.34,20.34,0,0,1-8.82,16.78,3.91,3.91,0,0,0-1.68,3s-.47,3.9,1.26,22.84c.81,8.27,1.42,14,1.71,16.58h0a2,2,0,0,0,2,1.75h1.76l11.27,0H171c4.92,0,9.6,0,14.12,0l10.69.1h0a2,2,0,0,0,2-1.76h0c2.48-22.7,3.06-35.44,3.06-35.44a2.24,2.24,0,0,0-2-2.18l-13-1.8h0a4.41,4.41,0,0,1-3.71-3.18,6.07,6.07,0,0,1-.16-2c5.26-75.64,30.2-101.13,30.2-101.13a7.45,7.45,0,0,1,1.21-1,4,4,0,0,1,6.07,1.77,7.88,7.88,0,0,1,.32,1.82c2.15,23.78,1.1,64.23-.23,95.8-1.13,26.78-2.5,47.81-2.5,47.81h0v0a1.56,1.56,0,0,0,1.56,1.56h0c7.08.12,14.05.27,21.44.45h.14a6.51,6.51,0,0,0,6.28-4.82h0c4.47-19.29,8-93.62,8.19-96.95a6.43,6.43,0,0,1,4.71-5.5l18.85-3.63a6.49,6.49,0,0,0,4.89-6.29A6.38,6.38,0,0,0,282.45,170.65Z"/></svg>